<svg width="48" height="48" viewBox="0 0 48 48" fill="none" xmlns="http://www.w3.org/2000/svg">
<path d="M0 23.0399C0 12.1776 0 6.74877 3.3744 3.37439C6.7488 0 12.1776 0 23.04 0H24.96C35.8224 0 41.2512 0 44.6256 3.37439C48 6.74877 48 12.1776 48 23.0399V24.9599C48 35.8223 48 41.2511 44.6256 44.6255C41.2512 48 35.8224 48 24.96 48H23.04C12.1776 48 6.7488 48 3.3744 44.6255C0 41.2511 0 35.8223 0 24.9599V23.0399Z" fill="#0077FF"/>
<path d="M28 0C19.1351 0.0288058 14.4171 0.326465 11.3741 3.37027C8 6.74534 8 12.1752 8 23.0398V24.9602C8 35.8248 8 41.2547 11.3741 44.6297C14.4171 47.6735 19.1351 47.9712 28 48C36.865 47.9712 41.583 47.6735 44.626 44.6297C48 41.2547 48 35.8248 48 24.9602V23.0398C48 12.1752 48 6.74534 44.626 3.37027C41.583 0.331266 36.865 0.0336067 28 0Z" fill="#FF2B42"/>
<path d="M33.7712 19.7811C36.1527 21.1668 37.3387 21.8597 37.7388 22.7614C38.0871 23.5492 38.0871 24.4508 37.7388 25.2386C37.3387 26.1451 36.148 26.8332 33.7712 28.2189L27.2527 32.0155C24.8712 33.4013 23.6852 34.0941 22.7062 33.9897C21.8544 33.8995 21.0825 33.4487 20.5789 32.7511C20 31.9491 20 30.5633 20 27.7966V20.2034C20 17.4319 20 16.0462 20.5789 15.2489C21.0825 14.5513 21.8544 14.1005 22.7062 14.0103C23.6805 13.9059 24.8712 14.5988 27.2527 15.9845L33.7712 19.7811Z" fill="white"/>
</svg>
