<svg width="48" height="48" viewBox="0 0 48 48" fill="none" xmlns="http://www.w3.org/2000/svg">
<mask id="mask0_147_99" style="mask-type:luminance" maskUnits="userSpaceOnUse" x="0" y="0" width="48" height="48">
<path d="M48 0H0V48H48V0Z" fill="white"/>
</mask>
<g mask="url(#mask0_147_99)">
<path d="M0 23.04C0 12.1788 0 6.74827 3.37413 3.37413C6.74827 0 12.1788 0 23.04 0H24.96C35.8212 0 41.2517 0 44.6259 3.37413C48 6.74827 48 12.1788 48 23.04V24.96C48 35.8212 48 41.2517 44.6259 44.6259C41.2517 48 35.8212 48 24.96 48H23.04C12.1788 48 6.74827 48 3.37413 44.6259C0 41.2517 0 35.8212 0 24.96V23.04Z" fill="#0077FF"/>
<path d="M25.5401 34.5802C14.6001 34.5802 8.36011 27.0802 8.1001 14.6002H13.5801C13.7601 23.7602 17.8 27.6402 21 28.4402V14.6002H26.1602V22.5002C29.3202 22.1602 32.6398 18.5602 33.7598 14.6002H38.9199C38.0599 19.4802 34.4599 23.0802 31.8999 24.5602C34.4599 25.7602 38.5601 28.9002 40.1201 34.5802H34.44C33.2199 30.7802 30.1802 27.8402 26.1602 27.4402V34.5802H25.5401Z" fill="white"/>
</g>
</svg>
