<svg width="65" height="47" viewBox="0 0 65 47" fill="none" xmlns="http://www.w3.org/2000/svg">
<g clip-path="url(#clip0_309_2)">
<path d="M31.7881 26.0526C31.2288 24.5381 30.975 22.9279 31.0412 21.3148C31.1075 19.7018 31.4925 18.1178 32.1742 16.6543C32.8558 15.1908 33.8205 13.8766 35.0127 12.7877C36.2049 11.6988 37.6009 10.8566 39.1202 10.3097C42.169 9.24679 45.514 9.42814 48.4299 10.8144C51.3458 12.2007 53.5975 14.6802 54.6969 17.7153C55.7964 20.7504 55.6548 24.0964 54.3029 27.0278C52.951 29.9592 50.4979 32.2398 47.4753 33.3749C45.9644 33.9251 44.3599 34.1721 42.7534 34.1018C41.147 34.0314 39.5702 33.6452 38.1132 32.9651C36.6563 32.285 35.3477 31.3244 34.2624 30.1383C33.177 28.9522 32.3363 27.5638 31.7881 26.0526ZM0 32.2977L23.0115 29.8491L11.2702 40.0546L29.5237 38.6573L21.2728 46.8383L42.3946 44.0411C46.2389 43.5519 48.4071 43.0627 50.786 42.1545C61.9053 37.887 67.7824 25.5816 63.7246 14.3248C62.7519 11.6422 61.2596 9.17773 59.3331 7.0724C57.4066 4.96708 55.0837 3.26223 52.4974 2.05545C49.911 0.848672 47.112 0.163642 44.2606 0.0395694C41.4091 -0.084503 38.5612 0.354818 35.8797 1.33239C33.5711 2.17287 31.6814 3.15388 28.2561 5.31884L10.3514 16.6329L21.8922 17.6113L0 32.2977Z" fill="white"/>
</g>
<defs>
<clipPath id="clip0_309_2">
<rect width="65" height="46.8382" fill="white"/>
</clipPath>
</defs>
</svg>
