<svg width="134" height="134" viewBox="0 0 134 134" fill="none" xmlns="http://www.w3.org/2000/svg">
<circle cx="67" cy="67" r="67" fill="#3E6939"/>
<g clip-path="url(#clip0_170_2)">
<path d="M62.0062 69.9829C61.2326 67.888 60.8814 65.6606 60.9731 63.4293C61.0647 61.198 61.5974 59.007 62.5403 56.9825C63.4831 54.958 64.8176 53.1402 66.4667 51.6339C68.1158 50.1276 70.0469 48.9626 72.1486 48.2062C76.3659 46.7359 80.9929 46.9867 85.0264 48.9044C89.0599 50.822 92.1747 54.2518 93.6955 58.4502C95.2163 62.6486 95.0205 67.277 93.1505 71.332C91.2804 75.3869 87.887 78.5416 83.7059 80.1118C81.616 80.8728 79.3965 81.2145 77.1743 81.1172C74.9522 81.0199 72.771 80.4856 70.7556 79.5449C68.7402 78.6041 66.9301 77.2754 65.4288 75.6347C63.9275 73.9939 62.7645 72.0734 62.0062 69.9829ZM18.0344 78.6216L49.8657 75.2345L33.6242 89.3516L58.8739 87.4187L47.4606 98.7354L76.6779 94.866C81.9957 94.1893 84.9949 93.5126 88.2857 92.2564C103.667 86.3533 111.796 69.3314 106.183 53.7601C104.838 50.0494 102.773 46.6403 100.109 43.7281C97.4437 40.8158 94.2305 38.4575 90.6529 36.7882C87.0752 35.1189 83.2035 34.1713 79.2591 33.9997C75.3147 33.8281 71.3753 34.4358 67.6661 35.788C64.4725 36.9507 61.8586 38.3077 57.1205 41.3024L32.3533 56.9529L48.3175 58.3063L18.0344 78.6216Z" fill="white"/>
</g>
<defs>
<clipPath id="clip0_170_2">
<rect width="89.9131" height="64.7903" fill="white" transform="translate(18.0345 33.945)"/>
</clipPath>
</defs>
</svg>
