<svg width="127" height="133" viewBox="0 0 127 133" fill="none" xmlns="http://www.w3.org/2000/svg">
<rect width="127" height="133" rx="63.5" fill="#3E6939"/>
<path d="M26 41.6708C30.4348 41.6708 36.9686 42.4115 40.7826 41.6708C45.9565 40.6659 54.087 41.088 60 41.088" stroke="white" stroke-width="5"/>
<path d="M103 40.3292C98.5652 40.3292 92.0314 39.5885 88.2174 40.3292C83.0435 41.3341 74.913 40.9121 69 40.9121" stroke="white" stroke-width="5"/>
<path d="M103 49.6584C98.5652 49.6584 92.0314 48.177 88.2174 49.6584C83.0435 51.6682 74.913 50.8241 69 50.8241" stroke="white" stroke-width="5"/>
<path d="M103 67.3292C98.5652 67.3292 92.0314 66.5885 88.2174 67.3292C83.0435 68.3341 74.913 67.9121 69 67.9121" stroke="white" stroke-width="5"/>
<path d="M103 74.6584C98.5652 74.6584 92.0314 73.177 88.2174 74.6584C83.0435 76.6682 74.913 75.8241 69 75.8241" stroke="white" stroke-width="5"/>
<path d="M103 82.3292C98.5652 82.3292 92.0314 81.5885 88.2174 82.3292C83.0435 83.3341 74.913 82.9121 69 82.9121" stroke="white" stroke-width="5"/>
<path d="M26 50.3416C30.4348 50.3416 36.9686 51.823 40.7826 50.3416C45.9565 48.3318 54.087 49.1759 60 49.1759" stroke="white" stroke-width="5"/>
<path d="M26 50.3416C30.4348 50.3416 36.9686 51.823 40.7826 50.3416C45.9565 48.3318 54.087 49.1759 60 49.1759" stroke="white" stroke-width="5"/>
<path d="M26 66.6708C30.4348 66.6708 36.9686 67.4115 40.7826 66.6708C45.9565 65.6659 54.087 66.088 60 66.088" stroke="white" stroke-width="5"/>
<path d="M26 66.6708C30.4348 66.6708 36.9686 67.4115 40.7826 66.6708C45.9565 65.6659 54.087 66.088 60 66.088" stroke="white" stroke-width="5"/>
<path d="M26 75.3416C30.4348 75.3416 36.9686 76.823 40.7826 75.3416C45.9565 73.3318 54.087 74.1759 60 74.1759" stroke="white" stroke-width="5"/>
<path d="M26 75.3416C30.4348 75.3416 36.9686 76.823 40.7826 75.3416C45.9565 73.3318 54.087 74.1759 60 74.1759" stroke="white" stroke-width="5"/>
<path d="M26 84.3416C30.4348 84.3416 36.9686 85.823 40.7826 84.3416C45.9565 82.3318 54.087 83.1759 60 83.1759" stroke="white" stroke-width="5"/>
<path d="M26 84.3416C30.4348 84.3416 36.9686 85.823 40.7826 84.3416C45.9565 82.3318 54.087 83.1759 60 83.1759" stroke="white" stroke-width="5"/>
<path d="M26 93.6708C30.4348 93.6708 36.9686 94.4115 40.7826 93.6708C45.9565 92.6659 54.087 93.088 60 93.088" stroke="white" stroke-width="5"/>
<path d="M26 59C30.5 59 35.75 59 41 59" stroke="white" stroke-width="5"/>
<path d="M88 59C92.5 59 97.75 59 103 59" stroke="white" stroke-width="5"/>
<path d="M69 93C73.5 93 78.75 93 84 93" stroke="white" stroke-width="5"/>
</svg>
