<svg width="133" height="133" viewBox="0 0 133 133" fill="none" xmlns="http://www.w3.org/2000/svg">
<circle cx="66.5" cy="66.5" r="66.5" fill="#3E6939"/>
<path d="M65.3177 85.9644C76.2213 85.9644 82.4225 78.8332 82.4225 67.0511V65.9143C82.4225 54.1322 76.2213 47.001 65.3177 47.001H53.4841C51.6756 47.001 50.6417 48.0349 50.6417 49.8434V83.123C50.6417 84.9315 51.6756 85.9654 53.4841 85.9654H65.3177V85.9644ZM63.4577 58.7831H65.3701C69.0396 58.7831 69.5046 62.1419 69.5046 66.4832C69.5046 70.8244 69.0396 74.1833 65.3701 74.1833H63.4577V58.7831ZM112.757 85.9644C114.617 85.9644 115.444 84.6723 114.565 82.9152L106.039 65.6551L114.049 50.0492C114.979 48.2921 114.256 47 112.343 47H103.197C102.215 47 101.337 47.6203 100.872 48.6018L97.3577 56.1465L93.8435 48.6018C93.3785 47.6203 92.5 47 91.5186 47H82.3721C80.4596 47 79.7364 48.2921 80.6664 50.0492L88.6762 65.6551L80.15 82.9152C79.2714 84.6723 80.0985 85.9644 81.9585 85.9644H91.2603C92.2942 85.9644 93.2242 85.2927 93.6377 84.2588L97.3587 75.319L101.08 84.2588C101.493 85.2927 102.423 85.9644 103.457 85.9644H112.759H112.757ZM31.676 85.9644C42.5796 85.9644 48.7808 78.8332 48.7808 67.0511V65.9143C48.7808 54.1322 42.5796 47.001 31.676 47.001H19.8424C18.0339 47.001 17 48.0349 17 49.8434V83.123C17 84.9315 18.0339 85.9654 19.8424 85.9654H31.676V85.9644ZM30.0228 58.7831H31.9352C35.6047 58.7831 36.0697 62.1419 36.0697 66.4832C36.0697 70.8244 35.6047 74.1833 31.9352 74.1833H30.0228V58.7831Z" fill="white"/>
</svg>
