<svg width="130" height="130" viewBox="0 0 130 130" fill="none" xmlns="http://www.w3.org/2000/svg">
<mask id="mask0_167_143" style="mask-type:alpha" maskUnits="userSpaceOnUse" x="0" y="0" width="130" height="130">
<circle cx="65" cy="65" r="65" fill="#D9D9D9"/>
</mask>
<g mask="url(#mask0_167_143)">
<mask id="mask1_167_143" style="mask-type:luminance" maskUnits="userSpaceOnUse" x="-18" y="-15" width="167" height="167">
<path d="M148.75 -15H-18V151.75H148.75V-15Z" fill="white"/>
</mask>
<g mask="url(#mask1_167_143)">
<path d="M-35.98 65.736C-35.98 19.4743 -35.98 -3.65657 -21.6083 -18.0283C-7.23656 -32.4 15.8943 -32.4 62.156 -32.4H70.334C116.596 -32.4 139.727 -32.4 154.098 -18.0283C168.47 -3.65657 168.47 19.4743 168.47 65.736V73.914C168.47 120.176 168.47 143.307 154.098 157.678C139.727 172.05 116.596 172.05 70.334 172.05H62.156C15.8943 172.05 -7.23656 172.05 -21.6083 157.678C-35.98 143.307 -35.98 120.176 -35.98 73.914V65.736Z" fill="#3E6939"/>
<path d="M67.0346 88.3229C43.0851 88.3229 29.4248 72.2429 28.8556 45.4857H40.8523C41.2463 65.1248 50.0903 73.4435 57.0956 75.1587V45.4857H68.3921V62.4232C75.3098 61.6943 82.577 53.976 85.0289 45.4857H96.3253C94.4426 55.9485 86.5616 63.6668 80.9574 66.8399C86.5616 69.4127 95.5376 76.1449 98.9527 88.3229H86.5179C83.8471 80.1756 77.1926 73.8723 68.3921 73.0146V88.3229H67.0346Z" fill="white"/>
</g>
</g>
</svg>
